<?xml version="1.0" standalone="no"?>
<!DOCTYPE svg PUBLIC "-//W3C//DTD SVG 20010904//EN"
 "http://www.w3.org/TR/2001/REC-SVG-20010904/DTD/svg10.dtd">
<svg version="1.0" xmlns="http://www.w3.org/2000/svg"
 width="3189.000000pt" height="2362.000000pt" viewBox="0 0 3189.000000 2362.000000"
 preserveAspectRatio="xMidYMid meet">
<metadata>
Created by potrace 1.16, written by Peter Selinger 2001-2019
</metadata>
<g transform="translate(0.000000,2362.000000) scale(0.100000,-0.100000)"
fill="#000000" stroke="none">
<path d="M16333 15491 c-18 -15 -53 -38 -78 -52 -68 -36 -96 -52 -135 -76 -19
-11 -51 -30 -70 -41 -19 -11 -88 -50 -153 -88 -65 -38 -152 -89 -195 -113
-123 -69 -446 -258 -581 -339 -68 -41 -137 -80 -154 -87 l-30 -12 94 -55 c52
-30 115 -67 140 -81 l45 -27 67 36 c37 19 67 33 67 29 0 -12 -70 -73 -99 -85
-27 -11 -35 -10 -77 15 -25 15 -47 25 -50 23 -3 -4 21 -62 31 -76 1 -1 12 -5
24 -7 12 -2 30 -13 39 -24 15 -18 23 -19 65 -11 26 5 55 16 63 25 17 16 62 31
70 22 3 -3 15 4 26 15 11 11 26 17 34 14 8 -3 14 1 14 11 0 13 3 13 15 3 8 -7
15 -8 15 -3 0 5 8 18 18 29 10 10 23 28 29 38 9 16 12 16 23 4 12 -13 16 -12
31 1 10 8 16 18 13 23 -5 8 16 12 49 9 10 -2 21 8 26 21 6 13 10 17 10 11 1
-16 19 -13 43 7 10 8 28 17 41 20 12 3 27 16 33 29 6 12 14 22 18 22 3 -1 9 0
14 0 4 1 16 1 27 0 17 -2 17 0 5 8 -13 9 -12 11 3 11 10 0 25 7 33 15 9 8 24
15 34 15 10 0 22 5 25 10 3 6 11 10 16 10 6 0 8 -4 5 -9 -9 -14 35 0 54 18 67
61 90 85 90 92 0 5 14 16 31 24 18 10 29 22 26 30 -4 9 3 12 24 11 17 -1 33 3
37 8 4 6 19 17 35 25 15 8 27 20 27 27 0 8 6 11 15 8 10 -4 15 0 15 10 0 9 6
16 13 15 23 -3 40 1 34 8 -4 3 -2 12 4 20 6 7 9 23 6 34 -4 17 -3 19 6 10 19
-19 28 -13 21 14 -5 19 -3 25 7 23 8 -2 15 7 17 20 3 23 3 23 -35 7 -21 -9
-54 -25 -73 -37 -84 -49 -433 -250 -518 -297 -51 -28 -104 -52 -117 -53 -14
-1 -25 -6 -25 -10 0 -4 -8 -8 -17 -8 -15 0 -14 2 3 14 25 18 437 261 709 419
110 64 208 122 219 130 17 13 9 19 -100 82 -66 37 -128 74 -139 81 -17 11 -24
9 -52 -15z"/>
<path d="M16885 15158 c-22 -16 -107 -68 -190 -115 -82 -47 -213 -123 -290
-168 -77 -46 -153 -90 -170 -99 -16 -9 -52 -30 -80 -46 -27 -16 -68 -39 -90
-51 -22 -12 -94 -53 -160 -92 -297 -174 -377 -218 -387 -215 -7 3 22 23 63 45
77 43 140 86 89 62 -54 -26 -180 -101 -180 -107 0 -4 32 -34 70 -67 57 -49 67
-62 56 -71 -25 -18 -29 -59 -10 -89 16 -24 74 -63 74 -49 0 8 49 -23 80 -51
30 -28 94 -47 108 -33 6 6 12 6 16 -1 9 -14 73 17 79 39 5 20 47 34 47 16 0
-7 -10 -18 -22 -25 -16 -8 -17 -9 -3 -4 11 4 36 7 56 8 24 0 47 10 73 31 27
23 44 30 63 26 22 -4 25 -2 20 12 -5 13 -1 19 14 23 13 4 19 12 16 22 -3 11 3
17 16 18 11 1 23 6 26 10 7 10 28 15 59 15 12 0 22 6 22 12 0 6 5 4 10 -4 8
-13 10 -12 10 3 0 9 5 17 11 17 7 0 18 8 25 18 13 16 14 16 7 -3 -6 -17 -4
-18 8 -8 12 9 18 10 27 1 16 -16 43 8 35 30 -6 14 -4 15 9 4 19 -15 49 -6 41
14 -3 8 -9 12 -13 9 -14 -8 -5 21 10 37 9 8 28 18 44 22 25 6 28 5 24 -12 -3
-11 0 -19 8 -19 8 0 14 4 14 8 0 5 6 6 13 3 8 -3 20 2 27 11 7 8 19 15 26 15
8 0 14 4 14 8 0 5 18 16 40 25 31 12 40 21 40 39 0 13 9 29 20 36 12 7 18 17
14 23 -4 7 1 7 15 0 17 -10 25 -9 37 4 8 8 12 15 8 15 -4 0 0 8 9 18 9 10 15
28 12 40 -2 14 1 22 10 22 7 0 16 9 20 20 4 12 22 24 48 32 23 7 47 17 52 23
25 26 55 76 55 90 0 8 7 15 15 15 19 0 19 4 0 40 -8 16 -12 37 -8 46 5 14 3
16 -13 10 -10 -4 -262 -147 -559 -318 -297 -171 -560 -322 -583 -335 -24 -14
-57 -29 -73 -33 -105 -30 17 44 881 540 261 150 481 278 488 284 9 9 -22 31
-141 99 -84 48 -155 87 -157 86 -3 0 -23 -14 -45 -31z"/>
<path d="M17525 14812 c-11 -11 -175 -108 -365 -217 -190 -110 -383 -221 -430
-248 -47 -27 -191 -110 -320 -184 -129 -74 -239 -139 -245 -144 -5 -5 -18 -9
-29 -9 -12 0 -16 -3 -10 -9 11 -11 245 -147 278 -162 19 -9 59 11 286 141 266
153 334 190 345 190 29 0 -156 -121 -401 -264 l-202 -117 -108 61 c-60 33
-114 60 -120 60 -18 0 -25 -28 -8 -34 9 -3 13 -10 10 -14 -3 -5 1 -19 8 -33 7
-13 11 -30 8 -37 -2 -6 1 -12 6 -12 6 0 14 -9 17 -20 7 -23 33 -39 72 -44 15
-1 43 -11 61 -20 18 -9 41 -14 52 -11 10 3 21 1 25 -5 5 -8 11 -8 21 1 8 6 29
13 46 15 18 2 35 9 39 15 4 6 11 9 15 6 5 -2 20 0 34 6 14 5 33 11 42 12 24 2
59 35 51 48 -3 6 -1 7 5 3 7 -4 12 -4 12 1 0 12 56 35 77 31 12 -2 17 2 15 14
-3 19 29 32 57 23 15 -4 30 4 56 32 20 21 33 31 29 23 -6 -12 -4 -13 7 -2 7 6
25 12 40 12 15 0 31 4 34 10 3 5 21 9 38 7 21 -1 31 2 30 11 -3 13 -3 13 49
17 20 1 44 5 52 8 8 3 18 1 22 -6 4 -7 4 -9 0 -5 -4 3 -15 -1 -24 -10 -10 -9
-88 -59 -175 -111 -86 -51 -157 -96 -157 -98 0 -5 9 0 360 200 500 284 793
458 660 392 -34 -17 -438 -244 -554 -311 -45 -27 -61 -32 -72 -23 -8 6 -21 9
-29 5 -10 -3 -13 -2 -10 5 4 5 2 16 -4 23 -8 10 -5 16 14 24 15 7 25 8 25 2 0
-18 14 -11 52 25 20 19 46 35 57 35 12 0 21 5 21 10 0 6 -7 10 -15 10 -8 0
-15 5 -15 11 0 6 8 8 20 4 13 -4 23 0 32 14 12 20 13 20 25 -2 l12 -22 2 23
c1 12 2 28 3 35 0 7 20 14 46 17 39 4 45 8 48 30 2 15 13 30 27 36 19 9 22 9
18 -2 -3 -8 0 -14 6 -14 6 0 12 6 12 13 1 6 2 19 3 27 0 8 8 16 16 16 8 1 21
2 28 3 6 0 12 8 12 16 0 9 6 18 14 21 8 3 12 13 8 26 -2 11 1 24 8 28 10 6 11
17 2 51 -7 28 -8 47 -2 53 6 6 10 15 10 21 0 5 -5 3 -10 -5 -7 -10 -10 -11
-10 -2 0 7 28 30 63 52 83 52 103 67 97 72 -13 12 -290 168 -297 168 -5 0 -17
-8 -28 -18z"/>
<path d="M14653 14528 c-8 -14 -68 -58 -78 -58 -3 0 -38 -20 -78 -43 -39 -24
-79 -47 -87 -51 -8 -4 -38 -21 -67 -39 -29 -18 -113 -68 -188 -112 -91 -53
-137 -87 -140 -100 -2 -11 -7 -558 -10 -1215 -7 -1405 -8 -1430 -30 -1325
l-12 60 -2 -58 c-1 -43 4 -63 17 -76 9 -10 259 -156 554 -324 477 -272 1393
-800 1647 -950 l94 -55 111 65 c61 36 193 113 294 171 l182 105 0 163 c0 90
-3 164 -7 164 -4 0 -16 -11 -28 -25 -11 -13 -134 -90 -274 -171 l-254 -146
-35 17 c-38 18 -1706 981 -1858 1073 -82 49 -93 60 -105 96 l-13 41 -7 -30
c-3 -16 -7 490 -8 1127 l-1 1156 43 24 c344 195 606 344 620 353 15 11 0 22
-120 90 -76 43 -141 80 -145 82 -4 2 -10 -2 -15 -9z"/>
<path d="M18144 14461 c-10 -10 -143 -89 -294 -176 -151 -87 -306 -177 -345
-200 -38 -23 -97 -57 -130 -75 -99 -56 -559 -322 -580 -336 -11 -8 -30 -14
-42 -14 -13 0 -23 -3 -23 -7 0 -5 39 -30 86 -58 85 -49 124 -77 124 -88 0 -3
-26 8 -57 24 -83 42 -111 38 -97 -15 3 -13 15 -26 26 -29 11 -3 17 -10 14 -15
-13 -21 6 -44 31 -39 20 4 29 -2 45 -29 11 -19 23 -32 28 -29 4 2 22 -9 39
-26 18 -17 37 -27 44 -23 7 4 9 4 5 -1 -12 -13 84 -57 113 -51 19 4 33 -2 49
-19 l22 -23 -31 -16 -31 -17 0 -178 c0 -197 1 -202 68 -214 27 -6 32 -4 30 10
-4 24 19 27 25 3 3 -11 2 -18 -3 -15 -4 3 -10 -2 -14 -10 -7 -20 15 -31 28
-14 6 8 19 13 29 11 14 -3 17 -10 13 -28 -6 -23 3 -32 18 -16 4 4 11 7 14 7 4
1 17 6 29 13 19 10 21 16 13 37 -10 28 1 33 20 10 10 -12 15 -12 32 5 12 11
25 17 29 14 4 -2 10 0 14 6 11 18 32 11 39 -12 4 -17 8 -20 14 -10 5 7 15 12
23 10 8 -2 13 4 13 14 -1 10 3 16 8 15 19 -4 19 21 1 26 -13 3 -10 6 12 12 17
4 40 17 53 28 16 15 22 17 23 6 1 -8 2 -18 4 -24 1 -5 3 -14 3 -20 1 -5 8 0
16 11 8 11 32 29 53 39 22 10 44 29 50 41 9 19 7 23 -11 27 -11 2 -30 8 -40
12 -15 6 -17 5 -11 -5 6 -9 4 -11 -5 -5 -10 6 -9 11 5 22 23 16 36 17 32 2 -5
-24 21 -18 27 6 4 14 11 25 17 25 6 0 7 -5 3 -11 -5 -8 -2 -9 12 -1 15 9 21 6
32 -11 l13 -22 -6 22 c-5 18 -1 24 19 29 14 3 26 9 26 13 0 4 27 13 60 20 53
12 60 16 60 38 0 14 7 26 18 29 56 18 74 30 89 55 10 16 23 27 30 25 6 -3 23
4 36 14 15 12 27 16 34 9 6 -6 14 0 24 18 22 43 31 50 67 46 24 -3 32 0 32 11
0 9 9 16 20 16 11 0 20 5 20 11 0 5 5 7 10 4 6 -3 13 1 16 9 3 9 11 13 18 9 6
-4 5 1 -3 10 -8 10 -11 21 -7 24 4 4 12 1 17 -7 8 -12 9 -10 4 6 -5 19 0 23
40 33 25 6 45 16 45 21 0 5 6 8 13 6 6 -1 9 -1 5 1 -14 8 -9 31 8 37 11 4 15
16 13 40 -2 19 2 40 9 48 15 18 16 39 14 236 -2 175 -5 181 -51 139 -29 -27
-242 -150 -248 -143 -4 4 16 17 135 85 39 23 72 44 72 47 0 3 -24 -8 -52 -24
-74 -42 -297 -166 -400 -224 -48 -26 -92 -48 -99 -48 -7 0 -24 -10 -38 -23
-30 -27 -72 -52 -369 -221 -122 -70 -227 -124 -232 -121 -6 4 -9 1 -8 -5 3
-13 -101 -72 -113 -64 -5 3 1 16 13 29 12 13 25 22 30 19 4 -3 8 6 8 20 0 14
4 26 10 26 5 0 13 12 16 26 5 20 11 24 28 20 11 -3 25 -6 29 -6 5 0 5 -4 2
-10 -7 -12 5 -13 22 -2 10 6 10 12 -1 28 -29 38 29 65 71 32 7 -6 15 -3 21 7
7 14 12 15 29 4 17 -10 24 -9 44 4 l23 17 -22 0 c-13 0 -21 3 -19 8 3 4 -8 7
-24 8 -29 1 -47 10 -38 18 11 10 79 15 79 5 0 -5 5 -7 10 -4 6 3 10 -1 10 -9
0 -9 7 -16 15 -16 16 0 19 17 9 44 -3 9 -10 13 -15 10 -14 -8 -11 22 4 33 6 6
20 13 30 16 15 6 17 3 13 -16 -3 -12 -3 -16 0 -9 4 9 9 10 19 2 10 -8 15 -8
21 1 5 8 3 9 -6 4 -8 -5 -11 -3 -8 5 8 25 28 22 28 -3 0 -14 7 -27 15 -31 13
-5 13 -1 0 31 -19 44 -19 47 -1 40 9 -4 17 2 21 14 4 12 15 19 31 19 14 0 36
11 50 25 28 28 49 33 40 10 -5 -13 -2 -14 22 -1 15 7 33 11 40 9 6 -3 12 2 12
11 0 9 -4 16 -8 16 -5 0 -9 7 -9 15 0 8 4 12 9 9 9 -6 57 45 58 61 0 6 20 17
45 24 25 7 42 17 39 22 -3 5 2 9 10 9 9 0 16 7 16 16 0 14 3 14 15 4 8 -7 15
-9 15 -5 0 4 6 2 14 -4 11 -9 15 -7 19 9 3 11 2 18 -3 15 -4 -3 -13 1 -19 9
-9 11 -6 15 18 18 19 3 28 1 24 -6 -3 -6 8 2 26 19 17 16 35 43 39 60 6 20 15
31 30 33 13 2 22 11 22 21 0 10 12 31 28 46 15 16 21 25 15 21 -8 -4 -13 -1
-13 8 0 9 -5 16 -11 16 -6 0 -8 -7 -5 -16 3 -8 2 -12 -4 -9 -18 11 -11 24 28
50 20 13 45 37 56 53 10 15 45 45 78 65 34 21 59 39 57 41 -5 5 -245 143 -280
161 -23 12 -28 12 -45 -4z"/>
<path d="M18276 13140 c-240 -138 -351 -203 -750 -434 -125 -73 -193 -116
-184 -116 7 0 338 185 463 259 44 27 150 87 235 136 85 48 158 89 163 92 4 2
7 2 7 0 0 -3 -37 -27 -82 -53 -46 -27 -98 -58 -116 -70 -18 -13 -52 -32 -75
-44 -23 -11 -49 -25 -57 -30 -8 -5 -44 -25 -80 -46 -36 -21 -83 -49 -105 -63
-40 -25 -118 -70 -205 -119 -25 -13 -70 -39 -100 -57 -30 -18 -88 -52 -127
-74 -49 -28 -74 -49 -77 -64 -3 -12 -7 -93 -8 -179 l-4 -157 31 19 c152 92
411 230 424 225 13 -5 10 -12 -17 -33 l-33 -28 25 -2 c17 -1 29 5 38 21 7 12
11 25 10 28 0 4 8 9 18 12 23 6 26 -3 8 -22 -11 -11 -9 -11 9 -2 13 6 27 20
33 32 6 11 15 17 21 14 5 -4 12 0 15 8 7 20 80 17 76 -4 -1 -8 5 -4 15 8 13
16 24 21 41 17 18 -5 21 -3 16 10 -3 9 -10 16 -15 16 -12 0 -11 40 1 41 6 1
14 2 19 3 5 0 12 4 16 8 4 4 13 4 21 1 10 -4 12 0 7 13 -5 15 -4 17 8 8 8 -6
29 -10 47 -9 21 1 32 -3 32 -12 0 -7 9 -13 20 -13 24 0 25 6 6 43 -8 15 -12
27 -8 28 4 0 17 2 30 5 14 2 25 -2 28 -11 6 -15 35 -22 33 -7 -5 33 3 62 18
62 9 0 14 -3 10 -6 -3 -3 -1 -12 6 -18 16 -18 40 3 24 22 -6 7 -6 12 -1 11 31
-6 56 3 61 22 4 16 8 17 14 7 7 -11 9 -11 9 1 0 7 6 11 15 7 8 -3 15 -2 15 3
0 5 21 7 46 5 25 -3 43 0 40 5 -3 5 1 14 9 21 16 13 21 35 6 25 -9 -5 -27 33
-19 41 10 9 47 -28 42 -41 -4 -8 -2 -15 3 -15 14 0 30 34 27 58 -3 16 1 22 15
22 22 0 22 27 0 41 -13 8 -6 13 14 10 4 0 7 5 7 12 1 6 7 1 15 -13 l14 -25 -3
32 c-3 28 2 36 30 54 l34 21 0 199 0 199 -26 -2 c-15 -2 -148 -73 -298 -158z"/>
<path d="M18580 12581 c-8 -6 -17 -8 -21 -5 -10 6 -649 -361 -649 -373 0 -7
432 237 619 350 19 11 32 15 30 9 -2 -6 -155 -99 -339 -205 -184 -107 -456
-265 -605 -352 -148 -87 -297 -174 -330 -192 -110 -63 -108 -60 -100 -196 4
-80 3 -129 -5 -153 -7 -19 -10 -38 -7 -41 3 -3 142 74 309 170 528 304 733
420 746 420 6 0 12 5 12 10 0 12 52 -1 65 -16 15 -18 39 -15 43 6 2 11 -3 17
-15 17 -14 0 -15 2 -4 9 8 6 24 6 38 0 14 -5 23 -5 23 1 0 5 16 12 35 16 32 6
34 8 23 28 -10 19 -10 20 6 7 14 -12 16 -12 10 2 -4 12 -1 14 16 10 14 -4 20
-1 18 8 -2 8 3 13 10 11 8 -1 11 2 7 8 -3 5 14 22 39 37 l46 28 0 197 c0 109
-1 198 -2 198 -2 0 -10 -4 -18 -9z"/>
<path d="M18560 11856 c-14 -14 -106 -72 -205 -129 -475 -274 -1128 -658
-1147 -675 -15 -13 -18 -33 -18 -142 0 -91 -4 -138 -15 -164 -8 -20 -13 -36
-10 -36 3 0 245 139 538 308 293 170 614 355 714 413 l183 104 0 173 c0 94 -3
172 -8 172 -4 0 -19 -11 -32 -24z"/>
<path d="M14020 11444 c0 -8 4 -22 9 -32 6 -9 12 -30 16 -45 3 -15 10 -25 15
-22 6 3 10 1 10 -4 0 -6 5 -11 11 -11 18 0 50 -42 45 -59 -6 -20 24 -57 50
-63 10 -2 18 -10 16 -16 -1 -7 8 -16 21 -21 12 -5 29 -21 37 -35 7 -15 19 -25
26 -22 7 3 20 -4 30 -15 9 -10 28 -19 41 -19 16 0 23 -6 23 -20 0 -15 7 -20
29 -20 16 0 31 5 33 12 3 7 10 8 17 4 10 -7 10 -10 1 -16 -23 -14 26 -47 63
-41 4 0 7 -3 7 -8 0 -5 10 -7 23 -5 12 2 16 2 10 -2 -15 -6 -17 -33 -5 -52 7
-10 13 -8 31 7 12 10 30 17 40 14 9 -2 23 3 30 11 19 23 41 20 41 -6 1 -23 1
-23 13 -3 12 20 39 22 62 5 6 -4 18 -10 27 -13 13 -4 16 -1 13 14 -2 11 0 17
6 14 5 -4 9 -15 9 -26 0 -12 4 -17 11 -14 6 4 16 -1 23 -10 12 -16 13 -16 19
-1 4 10 1 16 -8 16 -7 0 -15 7 -17 17 -2 9 -24 28 -49 42 -42 24 -156 92 -514
306 -66 40 -144 85 -172 100 -29 16 -53 31 -53 35 0 4 -9 10 -20 13 -13 3 -20
0 -20 -9z"/>
<path d="M12190 9274 c-141 -38 -218 -130 -220 -260 0 -66 38 -143 96 -191 24
-20 41 -40 38 -45 -3 -4 2 -5 10 -2 9 4 18 0 22 -9 3 -9 11 -14 18 -11 7 3 26
0 42 -7 47 -18 134 -37 134 -29 0 24 172 -43 205 -80 22 -24 31 -100 15 -129
-21 -41 -105 -71 -195 -71 -67 0 -90 5 -141 29 -35 16 -74 44 -91 66 l-31 37
-61 -27 -61 -28 23 -40 c29 -54 111 -119 184 -148 49 -19 77 -23 178 -24 111
0 124 2 180 28 73 34 110 68 139 127 31 61 37 100 26 162 -25 128 -92 175
-383 264 -162 49 -206 107 -134 179 38 38 89 55 165 55 72 0 119 -22 168 -77
l41 -47 54 21 c60 22 69 44 43 95 -73 142 -275 213 -464 162z"/>
<path d="M14135 9276 c-57 -14 -165 -66 -165 -79 0 -5 8 -3 18 4 14 11 13 10
-2 -9 -20 -23 -42 -31 -30 -9 5 7 1 7 -12 -3 -115 -87 -176 -215 -177 -375 -1
-83 17 -184 30 -172 3 3 21 -27 41 -66 145 -291 518 -356 748 -130 29 29 60
66 68 82 11 20 21 28 34 25 12 -4 18 1 19 13 0 10 6 42 12 72 16 76 14 216 -4
286 -69 269 -318 425 -580 361z m234 -172 c71 -21 141 -90 167 -165 26 -73 25
-213 -1 -289 -10 -30 -20 -62 -21 -70 -4 -24 35 32 47 68 6 18 13 31 16 29 12
-13 -44 -111 -86 -150 -63 -59 -140 -87 -234 -87 -85 1 -131 16 -191 61 -133
102 -174 295 -93 442 79 145 236 209 396 161z"/>
<path d="M15352 9280 c-126 -27 -251 -129 -315 -259 -20 -40 -37 -69 -37 -64
0 17 29 82 57 127 l25 41 -31 -33 c-65 -70 -101 -175 -101 -297 0 -86 17 -160
44 -193 12 -15 34 -47 48 -72 14 -25 52 -70 84 -101 180 -170 455 -171 636 -1
45 42 85 98 76 107 -2 2 -28 15 -58 29 l-54 25 -16 -27 c-42 -69 -157 -122
-265 -122 -128 0 -231 63 -287 178 -30 60 -33 75 -32 152 0 100 22 166 88 262
58 85 104 110 211 116 94 5 183 -22 213 -65 29 -42 84 -103 93 -103 4 0 18 10
31 23 13 13 35 31 51 40 15 10 27 21 27 26 0 16 -91 111 -134 140 -92 63 -247
94 -354 71z"/>
<path d="M12880 9217 c0 -54 4 -67 24 -86 22 -21 32 -22 142 -20 l119 1 3
-238 c2 -157 6 -234 12 -224 9 15 11 -26 12 -257 l0 -83 69 0 69 0 0 405 0
405 88 1 c131 2 167 5 180 13 7 4 12 33 12 77 l0 69 -365 0 -365 0 0 -63z"/>
<path d="M16126 9249 c-3 -17 -6 -93 -7 -168 0 -75 -3 -130 -6 -123 -16 40
-23 -6 -23 -158 0 -142 2 -172 15 -176 12 -5 15 -32 15 -160 l0 -154 65 0 65
0 2 63 c1 46 2 52 5 22 6 -56 20 -64 28 -16 4 23 11 39 15 36 5 -3 12 -1 15 5
4 7 26 9 58 5 65 -9 70 -11 56 -38 -10 -18 -9 -23 7 -32 19 -10 107 -95 99
-95 -3 0 13 -16 35 -36 22 -20 40 -43 40 -50 0 -8 6 -14 13 -14 7 0 29 -13 49
-30 31 -26 38 -28 48 -15 7 8 17 12 22 9 6 -4 7 2 3 16 -5 15 -4 20 4 16 14
-9 15 6 1 20 -9 9 -18 43 -19 77 -1 9 -7 17 -14 17 -22 0 -80 68 -173 205
-105 153 -124 182 -124 192 0 12 50 -52 161 -206 l105 -146 82 -3 c45 -2 82
-1 82 2 0 3 -67 99 -148 213 -81 114 -168 236 -191 271 l-44 62 44 53 c35 42
234 277 297 350 14 16 10 17 -64 17 l-79 -1 -184 -210 c-101 -115 -186 -207
-189 -204 -3 3 2 13 11 23 26 29 20 38 -8 12 -14 -13 -28 -20 -31 -17 -4 4 -9
94 -12 202 l-5 195 -57 0 c-56 0 -58 -1 -64 -31z"/>
<path d="M17076 9258 c-3 -13 -7 -34 -9 -48 -2 -14 -8 -33 -12 -42 -7 -17 4
-18 139 -18 145 0 146 0 152 -24 3 -13 4 -202 2 -420 l-3 -396 63 0 62 0 0
420 0 420 140 0 140 0 0 65 0 65 -335 0 -335 0 -4 -22z"/>
<path d="M18207 9248 c-8 -18 -72 -193 -142 -388 -164 -455 -183 -506 -201
-520 -28 -24 -13 -31 58 -28 l72 3 47 130 47 130 170 3 c200 3 174 20 234
-153 l38 -110 71 -3 c57 -2 70 0 67 11 -2 8 -79 226 -173 485 l-170 472 -51 0
c-49 0 -53 -2 -67 -32z m134 -386 c27 -79 47 -148 44 -153 -14 -22 -32 -5 -47
44 -15 47 -60 178 -64 185 -4 7 -53 -49 -59 -67 -7 -22 23 -60 43 -53 7 2 12
-1 12 -7 0 -6 -4 -11 -10 -11 -5 0 -10 -7 -10 -15 0 -9 9 -15 25 -15 14 0 28
-7 31 -15 4 -8 10 -12 15 -9 5 3 9 -4 9 -15 0 -20 -6 -21 -95 -21 -52 0 -95 1
-95 3 0 3 107 325 116 347 7 20 22 -16 85 -198z"/>
<path d="M18945 9258 c-3 -13 -6 -231 -8 -486 l-2 -462 63 0 62 0 0 151 0 152
56 66 c31 36 61 66 65 66 7 0 260 -350 304 -420 8 -13 26 -15 92 -13 l83 3
-190 269 c-105 147 -190 272 -190 277 0 5 73 94 162 197 88 103 168 195 176
205 14 16 10 17 -65 17 l-80 0 -44 -54 c-125 -152 -332 -386 -337 -382 -3 3
-11 1 -19 -5 -11 -10 -13 27 -13 215 l0 226 -55 0 c-48 0 -55 -3 -60 -22z"/>
<path d="M19918 9258 c-2 -13 -3 -223 -3 -468 0 -245 -4 -453 -9 -462 -7 -17
0 -18 94 -18 55 0 99 -4 96 -8 -2 -4 4 -8 14 -8 10 0 17 3 14 7 -2 4 5 5 16 2
11 -3 18 -8 15 -12 -2 -4 87 -8 198 -10 l202 -2 -3 85 -3 86 -250 0 c-192 0
-249 3 -250 13 -1 13 1 80 4 112 1 11 9 20 17 20 8 0 14 -6 12 -13 -2 -10 2
-10 17 0 18 11 18 15 6 44 -7 18 -10 35 -7 39 7 7 -17 25 -35 25 -6 0 -13 -8
-16 -17 -2 -10 -4 -1 -4 20 l-1 37 229 0 229 0 0 65 0 65 -207 0 c-115 0 -218
3 -230 6 -22 6 -23 10 -23 145 l0 139 250 0 250 0 0 65 0 65 -310 0 -310 0 -2
-22z"/>
<path d="M19127 8646 c-44 -51 -57 -75 -57 -99 0 -22 3 -28 9 -18 7 11 10 9
16 -8 3 -11 3 -25 0 -31 -3 -5 1 -10 10 -10 9 0 19 9 22 19 6 24 42 35 50 14
4 -10 8 -11 13 -4 3 6 16 13 28 16 20 4 28 -8 23 -37 0 -5 6 -8 15 -8 8 0 12
-4 9 -10 -3 -5 2 -10 12 -10 10 0 14 -4 8 -8 -21 -15 -13 -28 16 -24 16 2 29
0 28 -4 -5 -31 21 -72 73 -112 14 -11 18 -10 28 7 9 17 6 25 -20 47 -16 15
-30 33 -30 41 0 7 -9 23 -19 35 -11 13 -29 34 -40 47 -14 16 -21 19 -22 10 0
-8 -4 -5 -8 6 -5 11 -5 25 0 31 6 7 -8 35 -38 77 -27 36 -53 73 -59 83 -9 15
-17 8 -67 -50z"/>
<path d="M15105 8382 c1 -24 33 -92 53 -115 13 -14 13 -20 4 -26 -9 -5 -7 -13
9 -27 13 -10 19 -13 15 -6 -9 14 10 17 19 2 4 -6 11 -8 16 -5 5 4 12 -1 15 -9
10 -26 39 -18 51 14 6 17 7 28 2 25 -5 -4 -6 0 -3 8 5 13 -17 36 -84 85 -13 9
-35 29 -49 45 -30 31 -50 35 -48 9z"/>
</g>
</svg>
